<svg xmlns="http://www.w3.org/2000/svg" xmlns:xlink="http://www.w3.org/1999/xlink" width="379px" height="114px">
    <path  class="logo-svg" fill-rule="evenodd"  fill="rgb(255,255,255)"
    d="M375.096,88.649 C372.984,94.042 370.012,98.570 366.179,102.239 C362.346,105.907 357.762,108.687 352.429,110.576 C347.096,112.465 341.150,113.411 334.596,113.411 C328.038,113.411 322.096,112.410 316.762,110.409 C311.429,108.408 306.846,105.548 303.012,101.822 C299.179,98.099 296.205,93.568 294.096,88.232 C291.984,82.896 290.929,76.893 290.929,70.223 C290.929,63.665 291.984,57.716 294.096,52.380 C296.205,47.044 299.179,42.516 303.012,38.790 C306.846,35.067 311.429,32.204 316.762,30.203 C322.096,28.202 328.038,27.201 334.596,27.201 C341.150,27.201 347.096,28.230 352.429,30.286 C357.762,32.344 362.346,35.234 366.179,38.957 C370.012,42.683 372.984,47.211 375.096,52.547 C377.205,57.883 378.262,63.777 378.262,70.223 C378.262,77.117 377.205,83.258 375.096,88.649 ZM345.429,54.798 C342.872,51.187 339.262,49.379 334.596,49.379 C329.929,49.379 326.317,51.187 323.762,54.798 C321.205,58.412 319.929,63.553 319.929,70.223 C319.929,77.005 321.234,82.203 323.846,85.814 C326.455,89.428 330.096,91.233 334.762,91.233 C339.429,91.233 343.012,89.399 345.512,85.730 C348.012,82.062 349.262,76.893 349.262,70.223 C349.262,63.553 347.984,58.412 345.429,54.798 ZM256.929,110.993 C251.817,112.603 245.929,113.411 239.263,113.411 C232.039,113.411 225.567,112.410 219.846,110.409 C214.122,108.408 209.289,105.519 205.346,101.738 C201.401,97.961 198.401,93.430 196.346,88.148 C194.289,82.870 193.263,76.893 193.263,70.223 C193.263,62.886 194.372,56.523 196.596,51.130 C198.817,45.739 201.901,41.266 205.846,37.706 C209.789,34.150 214.401,31.511 219.679,29.786 C224.955,28.064 230.651,27.201 236.763,27.201 C238.984,27.201 241.151,27.397 243.263,27.785 C245.372,28.176 247.096,28.647 248.429,29.202 L248.429,2.189 C249.539,1.855 251.317,1.496 253.763,1.105 C256.205,0.717 258.705,0.521 261.263,0.521 C263.705,0.521 265.901,0.688 267.846,1.021 C269.789,1.355 271.429,2.022 272.763,3.022 C274.096,4.023 275.096,5.386 275.763,7.108 C276.429,8.833 276.763,11.084 276.763,13.861 L276.763,92.901 C276.763,98.127 274.317,102.296 269.429,105.407 C266.205,107.520 262.039,109.383 256.929,110.993 ZM248.596,51.380 C246.372,50.046 243.705,49.379 240.596,49.379 C234.596,49.379 229.984,51.104 226.763,54.548 C223.539,57.995 221.929,63.219 221.929,70.223 C221.929,77.117 223.429,82.312 226.429,85.814 C229.429,89.316 233.763,91.066 239.429,91.066 C241.429,91.066 243.234,90.762 244.846,90.149 C246.455,89.540 247.705,88.844 248.596,88.065 L248.596,51.380 ZM170.846,102.239 C167.013,105.907 162.430,108.687 157.096,110.576 C151.763,112.465 145.818,113.411 139.263,113.411 C132.706,113.411 126.763,112.410 121.430,110.409 C116.096,108.408 111.513,105.548 107.680,101.822 C103.846,98.099 100.872,93.568 98.763,88.232 C96.651,82.896 95.596,76.893 95.596,70.223 C95.596,63.665 96.651,57.716 98.763,52.380 C100.872,47.044 103.846,42.516 107.680,38.790 C111.513,35.067 116.096,32.204 121.430,30.203 C126.763,28.202 132.706,27.201 139.263,27.201 C145.818,27.201 151.763,28.230 157.096,30.286 C162.430,32.344 167.013,35.234 170.846,38.957 C174.680,42.683 177.651,47.211 179.763,52.547 C181.872,57.883 182.930,63.777 182.930,70.223 C182.930,77.117 181.872,83.258 179.763,88.649 C177.651,94.042 174.680,98.570 170.846,102.239 ZM150.096,54.798 C147.539,51.187 143.930,49.379 139.263,49.379 C134.596,49.379 130.984,51.187 128.430,54.798 C125.872,58.412 124.596,63.553 124.596,70.223 C124.596,77.005 125.901,82.203 128.513,85.814 C131.122,89.428 134.763,91.233 139.430,91.233 C144.096,91.233 147.680,89.399 150.180,85.730 C152.680,82.062 153.930,76.893 153.930,70.223 C153.930,63.553 152.651,58.412 150.096,54.798 ZM76.596,33.037 L58.096,33.037 L58.096,110.076 C56.872,110.409 54.956,110.743 52.346,111.076 C49.734,111.410 47.151,111.577 44.596,111.577 C42.039,111.577 39.789,111.381 37.846,110.993 C35.901,110.605 34.263,109.909 32.930,108.909 C31.596,107.908 30.596,106.519 29.930,104.740 C29.263,102.963 28.930,100.629 28.930,97.736 L28.930,33.037 L3.930,33.037 C3.151,31.815 2.430,30.148 1.763,28.035 C1.096,25.925 0.763,23.699 0.763,21.365 C0.763,17.029 1.734,13.919 3.680,12.027 C5.622,10.138 8.151,9.192 11.263,9.192 L83.930,9.192 C84.706,10.417 85.430,12.084 86.096,14.195 C86.763,16.308 87.096,18.530 87.096,20.865 C87.096,25.200 86.122,28.314 84.180,30.203 C82.234,32.094 79.706,33.037 76.596,33.037 Z"/>

</svg>